<?xml version="1.0" encoding="UTF-8"?>
<svg id="Layer_1" xmlns="http://www.w3.org/2000/svg" version="1.1" viewBox="0 0 841.89 595.28">
  <defs>
    <style>
      .st0 {
        fill: #ffffff;
      }

      .st1 {
        fill: #fe5f3b;
      }
    </style>
  </defs>
  <path class="st0" d="M408.04,424.84c0,2.13-1.62,3.91-3.75,4.09-9.67.8-22.73,1.89-32.22,1.89-26.18,0-51.55-7.79-51.55-42.16v-55.15c0-34.37,25.38-42.16,51.55-42.16,9.49,0,22.24,1.08,31.83,1.89,2.12.18,3.74,1.95,3.74,4.08v15.84c0,2.43-2.08,4.33-4.5,4.08-6.91-.7-20.32-1.92-29.87-1.92-23.38,0-26.38,8.79-26.38,31.57v28.17c0,22.78,1.6,31.97,26.38,31.97,9.59,0,23.29-1.23,30.28-1.93,2.41-.24,4.49,1.66,4.49,4.08v15.65Z"/>
  <path class="st0" d="M439.52,464.89l11.98-36.27s-6.41,0-6.41,0c-2.01,0-3.8-1.3-4.41-3.22l-27.4-85.45c-.96-2.99,1.27-6.05,4.41-6.05h16.95c2.06,0,3.87,1.36,4.45,3.34l18.21,62.41h2l18.21-62.41c.58-1.98,2.39-3.34,4.45-3.34h16.95c3.14,0,5.37,3.06,4.41,6.05l-40.99,127.81c-.62,1.92-2.4,3.22-4.41,3.22h-13.99c-3.16,0-5.39-3.09-4.4-6.09Z"/>
  <path class="st0" d="M577.94,306.64l11.98-36.27s-6.41,0-6.41,0c-2.01,0-3.8-1.3-4.41-3.22l-27.4-85.45c-.96-2.99,1.27-6.05,4.41-6.05h16.95c2.06,0,3.87,1.36,4.45,3.34l18.21,62.41h2l18.21-62.41c.58-1.98,2.39-3.34,4.45-3.34h16.95c3.14,0,5.37,3.06,4.41,6.05l-40.99,127.81c-.62,1.92-2.4,3.22-4.41,3.22h-13.99c-3.16,0-5.39-3.09-4.4-6.09Z"/>
  <path class="st0" d="M515.11,286.74h18.43c2.19,0,3.97,1.78,3.97,3.97v48.91c0,3.36,3.92,5.21,6.51,3.06l11.62-9.64c.43-.36.92-.64,1.46-.78,1.62-.42,3.42-.56,4.79-.56,21.58,0,31.57,12.79,31.57,30.37v36.37c0,25.78-20.98,32.37-41.16,32.37s-41.16-6.59-41.16-32.37v-107.73c0-2.19,1.78-3.97,3.97-3.97ZM537.51,395.84c0,9.19,4.6,13.79,14.79,13.79s14.79-4.59,14.79-13.79v-24.78c0-11.39-6.59-12.59-13.39-11.59l-12.84,2.06c-1.93.31-3.34,1.97-3.34,3.92v30.38Z"/>
  <path class="st0" d="M687.27,365.42v21.27c0,2.27-1.84,4.1-4.1,4.1h-51.45v2.4c0,13.99,5.59,16.99,20.38,16.99,8.21,0,19.52-.81,27.39-1.76,2.44-.3,4.58,1.61,4.58,4.07v12.86c0,2.08-1.54,3.83-3.6,4.07-8.44.98-20.23,1.73-29.77,1.73-23.58,0-45.36-7.79-45.36-35.97v-29.77c0-19.58,10.39-33.37,41.16-33.37s40.76,13.79,40.76,33.37ZM656.99,372.41c2.27,0,4.1-1.84,4.1-4.1v-1.69c0-8.19-2.2-13.59-14.59-13.59-10.19,0-14.79,3.4-14.79,13.99v1.29c0,2.27,1.84,4.1,4.1,4.1h21.17Z"/>
  <path class="st0" d="M712.94,424.47v-86.43c0-2.29,1.85-4.14,4.14-4.14h18.09c2.29,0,4.14,1.85,4.14,4.14v17.84h1s3.4-18.55,22.31-22.36c2.6-.52,5.07,1.39,5.07,4.05v19.52c0,2.17-1.69,3.92-3.85,4.12-16.3,1.48-22.66,14.3-24.18,17.84-.23.53-.34,1.08-.34,1.65v43.78c0,2.29-1.85,4.14-4.14,4.14h-18.09c-2.29,0-4.14-1.85-4.14-4.14Z"/>
  <path class="st0" d="M169.34,184.63c0,1.47-.17,3.79-.97,5.39-.14.28-.34.51-.56.73l-13.02,12.86c-1.12,1.1-1.12,2.9,0,4.01l15.62,15.45c.22.22.42.45.56.73.81,1.61.98,3.92.98,5.4v11.17c0,18.11-14.68,32.79-32.79,32.79h-62.31c-1.56,0-2.82-1.26-2.82-2.82v-129.45c0-1.56,1.26-2.82,2.82-2.82h61.13c20.78,0,31.37,13.39,31.37,29.97v16.59ZM143.17,177.04c0-11.79-3.2-15.39-15.19-15.39h-24.76c-1.56,0-2.82,1.26-2.82,2.82v26.94c0,1.56,1.26,2.82,2.82,2.82h27.6c.74,0,1.45-.29,1.97-.81l9.52-9.36c.54-.53.84-1.25.84-2.01v-5.01ZM144.92,230.16l-11.93-11.75c-.53-.52-1.24-.81-1.98-.81h-27.8c-1.56,0-2.82,1.26-2.82,2.82v26.14c0,1.56,1.26,2.82,2.82,2.82h25.34c9.5,0,17.2-7.7,17.2-17.2h0c0-.75-.3-1.48-.84-2.01Z"/>
  <path class="st0" d="M197.18,269.61v-134.36c0-2.08,1.68-3.76,3.76-3.76h18.86c2.08,0,3.76,1.68,3.76,3.76v134.36c0,2.08-1.68,3.76-3.76,3.76h-18.86c-2.08,0-3.76-1.68-3.76-3.76Z"/>
  <path class="st0" d="M463.97,174.59h17.31c2.5,0,4.53,2.03,4.53,4.53h0c0,3.84,4.47,5.94,7.43,3.49l10.61-8.81c.49-.41,1.05-.73,1.67-.88,1.59-.39,3.34-.53,4.67-.53,21.58,0,31.57,12.79,31.57,30.37v36.37c0,24.38-18.98,32.37-39.17,32.37-3.31,0-7.68-.26-11.53-.91-2.76-.46-5.25,1.67-5.25,4.47v32.07c0,2.5-2.03,4.53-4.53,4.53h-17.31c-2.5,0-4.53-2.03-4.53-4.53v-128.01c0-2.5,2.03-4.53,4.53-4.53ZM485.81,236.54c0,9.19,4.6,13.79,14.79,13.79s14.79-4.59,14.79-13.79v-24.78c0-11.39-6.59-12.59-13.39-11.59l-12.37,1.99c-2.2.35-3.82,2.25-3.82,4.48v29.91Z"/>
  <path class="st1" d="M395.21,174.94c-27.56,0-49.9,22.34-49.9,49.9s22.34,49.9,49.9,49.9,49.9-22.34,49.9-49.9-22.34-49.9-49.9-49.9ZM395.21,249.52c-13.63,0-24.68-11.05-24.68-24.68s11.05-24.68,24.68-24.68,24.68,11.05,24.68,24.68-11.05,24.68-24.68,24.68Z"/>
  <path class="st1" d="M288.64,167.7c-27.56,0-49.9,22.34-49.9,49.9s22.34,49.9,49.9,49.9,49.9-22.34,49.9-49.9-22.34-49.9-49.9-49.9ZM288.64,242.28c-13.63,0-24.68-11.05-24.68-24.68,0-9.57,5.44-17.86,13.4-21.96,3.38-1.74,7.22-2.72,11.28-2.72,5.11,0,9.86,1.55,13.8,4.21,6.56,4.43,10.88,11.95,10.88,20.46,0,13.63-11.05,24.68-24.68,24.68Z"/>
  <path class="st1" d="M420.81,128.31v24.84l-.71.71h-10.41l-.64.78.3,2.79-.6.69h-24.36c2.59-17.49,18.67-30.82,36.43-29.8Z"/>
  <path class="st1" d="M381.17,181.9c-.49-2.18-.45-15.44-.07-17.85.41-2.61,2.57-3.37,4.92-3.59,5.1-.48,17.28-.59,22.26,0,2.64.31,4.18,1.84,4.49,4.49.4,3.38.38,12.22-.01,15.62-.33,2.9-1.55,4.25-4.47,4.52-7.49.69-16.04-.53-23.65-.05-1.49-.22-3.15-1.7-3.48-3.15Z"/>
  <path class="st1" d="M422.97,151.72c-.2-6.06-.47-16.96.19-22.72.17-1.47.87-2.86,2.35-3.33,1.84-.58,15.76-.52,18.25-.22s3.33,1.74,3.57,4c.54,5.15.58,18.6-.02,23.69-.27,2.27-1.8,3.76-4.02,4.02-3.13.37-13.55.44-16.54-.04s-3.69-2.85-3.78-5.42Z"/>
  <path class="st1" d="M264.85,315.86l-.04-24.84.71-.71,10.41-.02.64-.79-.3-2.79.6-.69,24.36-.04c-2.56,17.5-18.62,30.85-36.38,29.87Z"/>
  <path class="st1" d="M304.39,262.2c.49,2.18.48,15.44.1,17.85-.41,2.61-2.56,3.38-4.92,3.6-5.1.49-17.28.62-22.26.03-2.64-.31-4.18-1.83-4.5-4.49-.41-3.38-.4-12.21-.02-15.62.32-2.9,1.54-4.25,4.46-4.52,7.49-.7,16.04.51,23.65,0,1.49.22,3.15,1.69,3.48,3.14Z"/>
  <path class="st1" d="M262.65,292.45c.21,6.06.5,16.96-.16,22.72-.17,1.47-.86,2.86-2.35,3.33-1.84.58-15.76.54-18.25.25-2.38-.28-3.33-1.74-3.58-3.99-.55-5.15-.61-18.59-.02-23.69.26-2.27,1.79-3.76,4.01-4.03,3.13-.38,13.55-.46,16.54,0,2.85.45,3.7,2.84,3.79,5.41Z"/>
</svg>
